<?xml version="1.0" encoding="utf-8"?>
<!-- Generator: Adobe Illustrator 15.0.0, SVG Export Plug-In . SVG Version: 6.00 Build 0)  -->
<!DOCTYPE svg PUBLIC "-//W3C//DTD SVG 1.1//EN" "http://www.w3.org/Graphics/SVG/1.1/DTD/svg11.dtd">
<svg version="1.1" id="Layer_1" xmlns="http://www.w3.org/2000/svg" xmlns:xlink="http://www.w3.org/1999/xlink" x="0px" y="0px"
	 width="841.89px" height="595.28px" viewBox="0 0 841.89 595.28" enable-background="new 0 0 841.89 595.28" xml:space="preserve">
<g>
	<path fill="#3575BB" d="M51.142,278.682V88.389H89.88v157.967h96.324v32.326H51.142z"/>
	<path fill="#3575BB" d="M259.018,182.096l-33.373-6.021c3.751-13.434,10.208-23.381,19.369-29.839
		c9.161-6.456,22.772-9.685,40.833-9.685c16.402,0,28.618,1.943,36.645,5.824c8.025,3.883,13.678,8.814,16.947,14.789
		c3.274,5.978,4.909,16.949,4.909,32.915l-0.393,42.928c0,12.216,0.589,21.224,1.765,27.025c1.18,5.804,3.381,12.021,6.61,18.65
		h-36.383c-0.96-2.442-2.138-6.064-3.533-10.863c-0.612-2.18-1.047-3.619-1.309-4.319c-6.282,6.108-13.001,10.689-20.155,13.742
		c-7.156,3.054-14.789,4.581-22.903,4.581c-14.31,0-25.585-3.881-33.833-11.648c-8.243-7.765-12.367-17.581-12.367-29.447
		c0-7.853,1.877-14.854,5.628-21.005c3.751-6.151,9.008-10.862,15.772-14.134c6.759-3.272,16.51-6.129,29.249-8.573
		c17.189-3.227,29.097-6.237,35.729-9.031v-3.665c0-7.067-1.746-12.105-5.234-15.116c-3.492-3.01-10.078-4.515-19.763-4.515
		c-6.544,0-11.648,1.289-15.313,3.861C264.252,171.125,261.284,175.639,259.018,182.096z M308.227,211.936
		c-4.711,1.57-12.171,3.448-22.379,5.627c-10.208,2.182-16.883,4.319-20.024,6.413c-4.8,3.402-7.198,7.721-7.198,12.956
		c0,5.15,1.919,9.6,5.759,13.35c3.839,3.752,8.724,5.628,14.657,5.628c6.631,0,12.957-2.18,18.978-6.544
		c4.45-3.314,7.371-7.372,8.768-12.171c0.958-3.141,1.44-9.116,1.44-17.93V211.936z"/>
	<path fill="#3575BB" d="M684.168,278.682H650.01v-20.417c-5.671,7.94-12.367,13.853-20.088,17.734
		c-7.724,3.88-15.51,5.824-23.361,5.824c-15.968,0-29.645-6.433-41.029-19.304c-11.388-12.869-17.08-30.821-17.08-53.855
		c0-23.558,5.539-41.466,16.621-53.724c11.081-12.257,25.084-18.388,42.011-18.388c15.53,0,28.967,6.458,40.31,19.37V86.819h36.775
		V278.682z M586.013,206.177c0,14.834,2.05,25.565,6.151,32.195c5.931,9.6,14.221,14.396,24.866,14.396
		c8.463,0,15.66-3.599,21.594-10.797c5.932-7.198,8.9-17.95,8.9-32.261c0-15.966-2.88-27.462-8.639-34.485
		c-5.759-7.022-13.132-10.536-22.118-10.536c-8.727,0-16.033,3.468-21.92,10.404C588.956,182.03,586.013,192.392,586.013,206.177z"
		/>
	<path fill="#3575BB" d="M0.885,505.316V313.452h57.978l34.813,130.875l34.42-130.875h58.109v191.864h-35.991v-151.03
		l-38.084,151.03H74.83l-37.954-151.03v151.03H0.885z"/>
	<path fill="#3575BB" d="M251.904,408.729l-33.373-6.02c3.749-13.438,10.208-23.386,19.37-29.839
		c9.161-6.456,22.772-9.687,40.833-9.687c16.401,0,28.617,1.941,36.645,5.823c8.026,3.883,13.675,8.815,16.949,14.787
		c3.27,5.98,4.907,16.949,4.907,32.917l-0.393,42.927c0,12.218,0.588,21.227,1.768,27.024c1.176,5.807,3.378,12.02,6.608,18.653
		h-36.383c-0.96-2.445-2.139-6.065-3.534-10.865c-0.612-2.179-1.047-3.62-1.309-4.317c-6.282,6.109-13.001,10.688-20.155,13.741
		c-7.156,3.051-14.789,4.582-22.903,4.582c-14.31,0-25.587-3.883-33.831-11.65c-8.247-7.764-12.369-17.577-12.369-29.444
		c0-7.853,1.875-14.856,5.627-21.009c3.75-6.149,9.008-10.86,15.77-14.135c6.762-3.27,16.513-6.124,29.252-8.569
		c17.187-3.229,29.097-6.236,35.729-9.032v-3.664c0-7.067-1.746-12.105-5.235-15.117c-3.491-3.009-10.077-4.515-19.762-4.515
		c-6.543,0-11.648,1.288-15.312,3.862C257.139,397.757,254.171,402.274,251.904,408.729z M301.113,438.569
		c-4.712,1.57-12.171,3.447-22.38,5.625c-10.208,2.183-16.883,4.321-20.024,6.416c-4.8,3.402-7.198,7.719-7.198,12.954
		c0,5.151,1.919,9.6,5.758,13.35c3.838,3.753,8.725,5.629,14.658,5.629c6.631,0,12.957-2.182,18.977-6.543
		c4.45-3.313,7.372-7.374,8.769-12.174c0.958-3.141,1.44-9.117,1.44-17.929V438.569z"/>
	<path fill="#3575BB" d="M408.692,505.316h-36.776v-138.99h34.158v19.761c5.845-9.335,11.103-15.484,15.771-18.452
		c4.666-2.968,9.967-4.45,15.901-4.45c8.376,0,16.446,2.313,24.212,6.936l-11.387,32.065c-6.195-4.014-11.953-6.021-17.275-6.021
		c-5.148,0-9.512,1.418-13.087,4.253c-3.578,2.835-6.393,7.961-8.442,15.38c-2.05,7.417-3.075,22.945-3.075,46.592V505.316z"/>
	<path fill="#3575BB" d="M707.35,461.08l36.646,6.149c-4.711,13.438-12.15,23.67-22.316,30.689
		c-10.163,7.027-22.881,10.538-38.148,10.538c-24.169,0-42.055-7.896-53.658-23.69c-9.161-12.649-13.742-28.615-13.742-47.901
		c0-23.033,6.021-41.07,18.061-54.116c12.04-13.04,27.265-19.564,45.675-19.564c20.68,0,36.995,6.826,48.947,20.482
		c11.953,13.655,17.67,34.574,17.146,62.755h-92.137c0.263,10.904,3.228,19.39,8.9,25.454c5.669,6.064,12.737,9.097,21.201,9.097
		c5.759,0,10.602-1.57,14.527-4.711S705.343,468.059,707.35,461.08z M709.444,423.911c-0.263-10.644-3.011-18.737-8.246-24.278
		s-11.604-8.312-19.107-8.312c-8.027,0-14.658,2.923-19.894,8.771c-5.233,5.847-7.81,13.784-7.721,23.818H709.444z"/>
	<path fill="#3575BB" d="M839.664,366.326v29.316h-25.128v56.015c0,11.344,0.239,17.951,0.722,19.825
		c0.478,1.88,1.57,3.427,3.271,4.646c1.703,1.224,3.772,1.832,6.217,1.832c3.402,0,8.331-1.176,14.789-3.532l3.141,28.532
		c-8.552,3.663-18.235,5.496-29.055,5.496c-6.632,0-12.607-1.116-17.93-3.339c-5.323-2.227-9.226-5.106-11.715-8.638
		c-2.484-3.535-4.209-8.312-5.168-14.331c-0.785-4.272-1.178-12.911-1.178-25.914v-60.593h-16.883v-29.316h16.883V338.71
		l36.906-21.464v49.08H839.664z"/>
	<path fill="#3575BB" d="M554.095,417.105l47.508-50.779H556.32l-43.059,48.947V299.3h-0.051V192.304
		c0-10.732-0.676-18.977-2.027-24.735c-1.354-5.758-3.753-10.906-7.199-15.443c-3.447-4.535-8.529-8.266-15.247-11.189
		c-6.719-2.923-14.134-4.385-22.248-4.385c-18.411,0-33.68,7.853-45.806,23.558v-20.417h-34.159v138.99H423.3v-62.951
		c0-15.529,0.937-26.175,2.815-31.934c1.874-5.759,5.342-10.382,10.403-13.873c5.06-3.489,10.774-5.235,17.145-5.235
		c4.974,0,9.226,1.223,12.762,3.665c3.531,2.443,6.085,5.869,7.655,10.274c1.57,4.406,2.355,14.114,2.355,29.12v297.569h0.051l0,0
		h36.775v-44.499l17.145-17.932l34.944,62.431h39.655L554.095,417.105z"/>
</g>
</svg>
